<svg fill="none" height="300" viewBox="0 0 300 300" width="300" xmlns="http://www.w3.org/2000/svg" xmlns:xlink="http://www.w3.org/1999/xlink"><linearGradient id="a"><stop offset="0" stop-color="#b44ebf"/><stop offset="1" stop-color="#6b2372"/></linearGradient><linearGradient id="b" gradientUnits="userSpaceOnUse" x1=".000001" x2="150" xlink:href="#a" y1="151.429" y2="151.429"/><linearGradient id="c" gradientUnits="userSpaceOnUse" x1="149.964" x2="64.9641" xlink:href="#a" y1="149.966" y2="149.966"/><clipPath id="d"><path d="m0 0h300v300h-300z"/></clipPath><g clip-path="url(#d)"><path d="m137.459 171.846c-1.232 0-2.452-.243-3.59-.715-1.137-.471-2.171-1.163-3.041-2.034-.871-.872-1.561-1.906-2.031-3.045-.471-1.138-.712-2.358-.711-3.59v-25.003c0-2.486.988-4.87 2.746-6.627 1.757-1.758 4.141-2.746 6.627-2.746h12.541v-128.086c-39.782.00000059-77.9356 15.8035-106.066 43.934-28.1305 28.1304-43.934 66.284-43.934 106.066s15.8035 77.936 43.934 106.066c28.1304 28.13 66.284 43.934 106.066 43.934v-128.154z" fill="url(#b)"/><path d="m150 0v46.8383c27.163.2841 53.117 11.2738 72.224 30.5821 19.108 19.3083 29.825 45.3756 29.825 72.5406 0 27.164-10.717 53.231-29.825 72.54-19.107 19.308-45.061 30.298-72.224 30.582v46.917c39.782 0 77.936-15.804 106.066-43.934s43.934-66.284 43.934-106.066-15.804-77.9356-43.934-106.066c-28.13-28.1305-66.284-43.93399941-106.066-43.934z" fill="#b44ebf"/><path d="m150 65.5826v62.5034h12.496c1.232-.001 2.452.24 3.59.711 1.139.47 2.173 1.16 3.045 2.03.871.871 1.563 1.905 2.034 3.042.472 1.138.715 2.358.715 3.59v25.003c.001 1.233-.241 2.454-.712 3.593s-1.162 2.174-2.033 3.046c-.872.871-1.907 1.562-3.046 2.033-1.139.472-2.36.713-3.593.712h-12.496v62.492c22.209-.257 43.422-9.259 59.036-25.055 15.615-15.796 24.372-37.112 24.372-59.323s-8.757-43.526-24.372-59.3218c-15.614-15.796-36.827-24.7988-59.036-25.0556z" fill="#b44ebf"/><path d="m137.457 171.846c-1.232 0-2.451-.243-3.589-.715-1.138-.471-2.172-1.163-3.042-2.034-.871-.872-1.561-1.906-2.031-3.045-.47-1.138-.712-2.358-.71-3.59v-25.003c0-2.486.987-4.87 2.745-6.628 1.757-1.757 4.141-2.745 6.627-2.745h12.598v-62.4695c-22.371 0-43.826 8.8868-59.6445 24.7054-15.8186 15.8191-24.7054 37.2731-24.7054 59.6441s8.8868 43.826 24.7054 59.644c15.8185 15.819 37.2735 24.706 59.6445 24.706v-62.47z" fill="url(#c)"/></g></svg>